<?xml version="1.0" encoding="UTF-8"?>
<svg width="14px" height="14px" viewBox="0 0 14 14" version="1.1" xmlns="http://www.w3.org/2000/svg" xmlns:xlink="http://www.w3.org/1999/xlink">
    <!-- Generator: Sketch 52.2 (67145) - http://www.bohemiancoding.com/sketch -->
    <title>A</title>
    <desc>Created with Sketch.</desc>
    <g id="Page-1" stroke="none" stroke-width="1" fill="none" fill-rule="evenodd">
        <g id="滑动效果" transform="translate(-329.000000, -34.000000)">
            <g id="分组" transform="translate(0.000000, 20.000000)">
                <g id="分组-2" transform="translate(265.000000, 12.000000)">
                    <g id="分组-5" transform="translate(64.000000, 2.000000)">
                        <rect id="矩形" fill="#D8D8D8" opacity="0" x="0" y="0" width="14" height="14"></rect>
                        <g id="分组-4" transform="translate(2.000000, 1.000000)">
                            <path d="M5.35355339,0.353553391 L9.14644661,4.14644661 C9.34170876,4.34170876 9.34170876,4.65829124 9.14644661,4.85355339 C9.05267842,4.94732158 8.92550146,5 8.79289322,5 L1.20710678,5 C0.930964406,5 0.707106781,4.77614237 0.707106781,4.5 C0.707106781,4.36739176 0.759785201,4.2402148 0.853553391,4.14644661 L4.64644661,0.353553391 C4.84170876,0.158291245 5.15829124,0.158291245 5.35355339,0.353553391 Z" id="三角形" fill="#666666"></path>
                            <path d="M5.35355339,7.35355339 L9.14644661,11.1464466 C9.34170876,11.3417088 9.34170876,11.6582912 9.14644661,11.8535534 C9.05267842,11.9473216 8.92550146,12 8.79289322,12 L1.20710678,12 C0.930964406,12 0.707106781,11.7761424 0.707106781,11.5 C0.707106781,11.3673918 0.759785201,11.2402148 0.853553391,11.1464466 L4.64644661,7.35355339 C4.84170876,7.15829124 5.15829124,7.15829124 5.35355339,7.35355339 Z" id="三角形-copy" fill="#D8D8D8" transform="translate(5.000000, 9.500000) scale(1, -1) translate(-5.000000, -9.500000) "></path>
                        </g>
                    </g>
                </g>
            </g>
        </g>
    </g>
</svg>